<?xml version="1.0" encoding="UTF-8" standalone="no"?>
<!DOCTYPE svg PUBLIC "-//W3C//DTD SVG 1.1//EN"
 "http://www.w3.org/Graphics/SVG/1.1/DTD/svg11.dtd">
<!-- Generated by graphviz version 2.43.0 (0)
 -->
<!-- Title: G Pages: 1 -->
<svg width="1605pt" height="98pt"
 viewBox="0.00 0.00 1605.00 98.00" xmlns="http://www.w3.org/2000/svg" xmlns:xlink="http://www.w3.org/1999/xlink">
<g id="graph0" class="graph" transform="scale(1 1) rotate(0) translate(4 94)">
<title>G</title>
<polygon fill="white" stroke="transparent" points="-4,4 -4,-94 1601,-94 1601,4 -4,4"/>
<!-- azurerm_network_interface.terra&#45;VNeT&#45;nic -->
<g id="node1" class="node">
<title>azurerm_network_interface.terra&#45;VNeT&#45;nic</title>
<polygon fill="none" stroke="black" points="1099,-90 791,-90 791,-54 1099,-54 1099,-90"/>
<text text-anchor="middle" x="945" y="-68.3" font-family="sans-serif" font-size="14.00">azurerm_network_interface.terra&#45;VNeT&#45;nic</text>
</g>
<!-- azurerm_public_ip.VM&#45;ip -->
<g id="node4" class="node">
<title>azurerm_public_ip.VM&#45;ip</title>
<polygon fill="none" stroke="black" points="755,-36 569,-36 569,0 755,0 755,-36"/>
<text text-anchor="middle" x="662" y="-14.3" font-family="sans-serif" font-size="14.00">azurerm_public_ip.VM&#45;ip</text>
</g>
<!-- azurerm_network_interface.terra&#45;VNeT&#45;nic&#45;&gt;azurerm_public_ip.VM&#45;ip -->
<g id="edge1" class="edge">
<title>azurerm_network_interface.terra&#45;VNeT&#45;nic&#45;&gt;azurerm_public_ip.VM&#45;ip</title>
<path fill="none" stroke="black" d="M838.98,-53.94C822.89,-51.04 806.49,-48 791,-45 779.88,-42.85 768.23,-40.51 756.68,-38.13"/>
<polygon fill="black" stroke="black" points="757.08,-34.64 746.58,-36.05 755.66,-41.5 757.08,-34.64"/>
</g>
<!-- azurerm_subnet.default -->
<g id="node6" class="node">
<title>azurerm_subnet.default</title>
<polygon fill="none" stroke="black" points="753,-90 571,-90 571,-54 753,-54 753,-90"/>
<text text-anchor="middle" x="662" y="-68.3" font-family="sans-serif" font-size="14.00">azurerm_subnet.default</text>
</g>
<!-- azurerm_network_interface.terra&#45;VNeT&#45;nic&#45;&gt;azurerm_subnet.default -->
<g id="edge2" class="edge">
<title>azurerm_network_interface.terra&#45;VNeT&#45;nic&#45;&gt;azurerm_subnet.default</title>
<path fill="none" stroke="black" d="M790.76,-72C781.42,-72 772.17,-72 763.16,-72"/>
<polygon fill="black" stroke="black" points="763.09,-68.5 753.09,-72 763.09,-75.5 763.09,-68.5"/>
</g>
<!-- azurerm_network_interface_security_group_association.example -->
<g id="node2" class="node">
<title>azurerm_network_interface_security_group_association.example</title>
<polygon fill="none" stroke="black" points="1597,-36 1135,-36 1135,0 1597,0 1597,-36"/>
<text text-anchor="middle" x="1366" y="-14.3" font-family="sans-serif" font-size="14.00">azurerm_network_interface_security_group_association.example</text>
</g>
<!-- azurerm_network_interface_security_group_association.example&#45;&gt;azurerm_network_interface.terra&#45;VNeT&#45;nic -->
<g id="edge3" class="edge">
<title>azurerm_network_interface_security_group_association.example&#45;&gt;azurerm_network_interface.terra&#45;VNeT&#45;nic</title>
<path fill="none" stroke="black" d="M1206.88,-36.03C1182.79,-38.93 1158.22,-41.98 1135,-45 1116.89,-47.36 1097.82,-49.95 1079.04,-52.57"/>
<polygon fill="black" stroke="black" points="1078.37,-49.13 1068.96,-53.98 1079.34,-56.06 1078.37,-49.13"/>
</g>
<!-- azurerm_network_security_group.react -->
<g id="node3" class="node">
<title>azurerm_network_security_group.react</title>
<polygon fill="none" stroke="black" points="1087.5,-36 802.5,-36 802.5,0 1087.5,0 1087.5,-36"/>
<text text-anchor="middle" x="945" y="-14.3" font-family="sans-serif" font-size="14.00">azurerm_network_security_group.react</text>
</g>
<!-- azurerm_network_interface_security_group_association.example&#45;&gt;azurerm_network_security_group.react -->
<g id="edge4" class="edge">
<title>azurerm_network_interface_security_group_association.example&#45;&gt;azurerm_network_security_group.react</title>
<path fill="none" stroke="black" d="M1134.97,-18C1122.4,-18 1109.93,-18 1097.74,-18"/>
<polygon fill="black" stroke="black" points="1097.58,-14.5 1087.58,-18 1097.58,-21.5 1097.58,-14.5"/>
</g>
<!-- azurerm_network_security_group.react&#45;&gt;azurerm_public_ip.VM&#45;ip -->
<g id="edge5" class="edge">
<title>azurerm_network_security_group.react&#45;&gt;azurerm_public_ip.VM&#45;ip</title>
<path fill="none" stroke="black" d="M802.27,-18C789.8,-18 777.34,-18 765.29,-18"/>
<polygon fill="black" stroke="black" points="765.28,-14.5 755.28,-18 765.28,-21.5 765.28,-14.5"/>
</g>
<!-- azurerm_resource_group.kuber -->
<g id="node5" class="node">
<title>azurerm_resource_group.kuber</title>
<polygon fill="none" stroke="black" points="231,-63 0,-63 0,-27 231,-27 231,-63"/>
<text text-anchor="middle" x="115.5" y="-41.3" font-family="sans-serif" font-size="14.00">azurerm_resource_group.kuber</text>
</g>
<!-- azurerm_public_ip.VM&#45;ip&#45;&gt;azurerm_resource_group.kuber -->
<g id="edge6" class="edge">
<title>azurerm_public_ip.VM&#45;ip&#45;&gt;azurerm_resource_group.kuber</title>
<path fill="none" stroke="black" d="M568.94,-22.56C478.93,-27.03 341.24,-33.86 241.39,-38.81"/>
<polygon fill="black" stroke="black" points="241.05,-35.32 231.24,-39.31 241.4,-42.31 241.05,-35.32"/>
</g>
<!-- azurerm_virtual_network.terra&#45;VNeT -->
<g id="node8" class="node">
<title>azurerm_virtual_network.terra&#45;VNeT</title>
<polygon fill="none" stroke="black" points="533,-88 267,-88 267,-52 533,-52 533,-88"/>
<text text-anchor="middle" x="400" y="-66.3" font-family="sans-serif" font-size="14.00">azurerm_virtual_network.terra&#45;VNeT</text>
</g>
<!-- azurerm_subnet.default&#45;&gt;azurerm_virtual_network.terra&#45;VNeT -->
<g id="edge7" class="edge">
<title>azurerm_subnet.default&#45;&gt;azurerm_virtual_network.terra&#45;VNeT</title>
<path fill="none" stroke="black" d="M570.79,-71.31C561.85,-71.24 552.64,-71.17 543.33,-71.09"/>
<polygon fill="black" stroke="black" points="543.24,-67.59 533.22,-71.02 543.19,-74.59 543.24,-67.59"/>
</g>
<!-- azurerm_virtual_machine.react -->
<g id="node7" class="node">
<title>azurerm_virtual_machine.react</title>
<polygon fill="none" stroke="black" points="1481,-90 1251,-90 1251,-54 1481,-54 1481,-90"/>
<text text-anchor="middle" x="1366" y="-68.3" font-family="sans-serif" font-size="14.00">azurerm_virtual_machine.react</text>
</g>
<!-- azurerm_virtual_machine.react&#45;&gt;azurerm_network_interface.terra&#45;VNeT&#45;nic -->
<g id="edge8" class="edge">
<title>azurerm_virtual_machine.react&#45;&gt;azurerm_network_interface.terra&#45;VNeT&#45;nic</title>
<path fill="none" stroke="black" d="M1250.78,-72C1207.12,-72 1156.44,-72 1109.1,-72"/>
<polygon fill="black" stroke="black" points="1109.05,-68.5 1099.05,-72 1109.05,-75.5 1109.05,-68.5"/>
</g>
<!-- azurerm_virtual_network.terra&#45;VNeT&#45;&gt;azurerm_resource_group.kuber -->
<g id="edge9" class="edge">
<title>azurerm_virtual_network.terra&#45;VNeT&#45;&gt;azurerm_resource_group.kuber</title>
<path fill="none" stroke="black" d="M266.85,-58.31C258.28,-57.55 249.67,-56.78 241.14,-56.03"/>
<polygon fill="black" stroke="black" points="241.44,-52.54 231.17,-55.15 240.83,-59.52 241.44,-52.54"/>
</g>
</g>
</svg>
